<svg xmlns="http://www.w3.org/2000/svg" version="1.1" width="600px" height="600px" xlink="http://www.w3.org/1999/xlink" style="overflow:hidden!important;"><g id="svga-group-wrapper" transform="scale(3 3)"><g id="svga-group-backs-single"></g><g id="svga-group-subwrapper" transform="matrix(0.84999948 0 0 0.84999948 14.93097550855201 17.697747535431375)"><g id="svga-group-hair-back" transform="matrix(0.9599996900000001 0 0 0.9997996900000001 4.000030999999993 0.020030999999988808)"><path id="SvgjsPath3144" d="M151.582 41.064l-99.508-5.662c0 0-25.074 182.88-25.074 188.596 0 0 100.899 0.72 143.907 0C170.103 216.079 151.582 41.064 151.582 41.064z" fill="#be8f5f" stroke-width="none" opacity="1" stroke="none"></path></g><g id="svga-group-humanbody-single"><path id="SvgjsPath2761" d="M190.858 199.866c-6.008-10.158-13.474-11.973-19.628-13.936 -6.323-2.016-19.346-3.178-26.449-4.6 -6.86-1.373-23.153-5.789-23.339-13.488 -0.192-8.066 4.291-40.09 4.291-40.09H74.005c0 0 4.487 32.023 4.294 40.09 -0.184 7.699-16.48 12.115-23.341 13.488 -7.104 1.422-20.125 2.584-26.448 4.6 -6.156 1.963-13.624 3.777-19.632 13.936 -3.644 6.16-6.008 16.133-6.008 27.133h194C196.869 215.999 194.509 206.026 190.858 199.866z" fill="#f0c7b1" stroke-width="none" opacity="1" stroke="none"></path><path id="SvgjsPath2762" d="M121.442 167.843c2.495 10.929 18.165 13.698 26.293 15.325 21.909 4.379 33.772 5.134 42.297 19.539 2.903 4.916 5.459 15.864 5.962 24.153 1.835 0.291 0.531-17.432-5.136-26.994 -9.742-16.472-29.089-15.135-46.077-18.535C137.921 179.958 121.628 175.542 121.442 167.843L121.442 167.843zM78.558 167.843c-0.186 7.699-16.479 12.115-23.339 13.488 -16.988 3.4-36.335 2.063-46.077 18.535 -5.667 9.563-6.971 27.285-5.136 26.994 0.503-8.289 3.059-19.237 5.962-24.153 8.524-14.405 20.388-15.16 42.297-19.539C60.393 181.541 76.063 178.771 78.558 167.843L78.558 167.843z" fill="#ffe4d6" stroke-width="none" opacity="1" stroke="none"></path><path id="SvgjsPath2763" d="M51.206 189.513c0 0 28.641 0.299 33.473 1.885 2.314 0.758 8.372 5.633 8.372 5.633s-6.556-3.17-8.658-3.758C79.51 191.909 51.206 189.513 51.206 189.513zM99.795 199.999c2.053-0.041 7.887-3.799 7.887-3.799s-5.574 2.059-7.342 2.16c-1.491 0.086-6.366-1.238-6.366-1.238S98.112 200.032 99.795 199.999zM117.008 192.757c6.75-1.818 29.786-3.23 29.786-3.23s-23.791-0.516-30.51 1.725c-2.252 0.752-7.562 5.16-7.562 5.16S114.786 193.354 117.008 192.757z" fill="#e1ac8f" stroke-width="none" opacity="1" stroke="none"></path><path id="SvgjsPath2764" d="M190.858 199.866c-9.741-16.471-29.122-15.142-46.077-18.535 -6.86-1.373-23.153-5.789-23.339-13.488 -0.192-8.066 4.291-40.09 4.291-40.09H74.005c0 0 4.487 32.023 4.294 40.09 -0.184 7.699-16.48 12.115-23.341 13.488 -7.104 1.422-20.125 2.584-26.448 4.6 -6.156 1.963-13.624 3.777-19.632 13.936 -3.644 6.16-6.008 16.133-6.008 27.133h194C196.869 215.999 194.509 206.026 190.858 199.866z" fill="none" stroke="#c27b55" stroke-width="1.5" opacity="1"></path></g><g id="svga-group-chinshadow-single"><path id="SvgjsPath3003" d="M100.021 171.27c5.607-0.009 13.53-3.627 20.967-8.478 0.485-6.84 1.756-17.341 2.758-25.098 -13.972-1.825-33.828-1.785-47.741 0.101 0.995 7.702 2.249 18.065 2.739 24.877C86.278 167.593 94.344 171.279 100.021 171.27z" fill="url(#SvgjsLinearGradient3004)" opacity="1"></path></g><g id="svga-group-clothes-single" ><path id="SvgjsPath2996" d="M3.229 223.031c-0.622-0.007-0.456-0.006-0.92-0.006 0.025-17.784 6.689-31.059 17.837-35.518 1.466 0.314 3.037 0.725 4.514 1.033C11.551 194.886 4.531 208.814 3.229 223.031zM181.643 188.404c-1.855 0.251-3.683 0.491-5.504 0.729 13.353 5.75 17.424 20.534 19.434 33.854 0.344-0.001 0.655-0.002 0.931-0.002C195.421 206.217 195.152 195.351 181.643 188.404z" fill="#1fbad4" stroke-width="none" opacity="1"></path><path id="SvgjsPath2997" d="M181.509 192.193c0.734-0.111 2.033-0.324 2.761-0.438 -1.678-1.271-2.67-1.958-3.67-2.549 -5.851 1.009-59.284 7.112-88.51 7.112 -38.337 0-66.622-6.76-71.951-8.293 -1.09 0.62-2.15 1.301-3.15 2.061 1 0.257 2.201 0.598 3.218 0.841 -10.338 7.09-15.825 19.518-16.978 32.104 30.39 0.341 61.447 0.514 92.321 0.514 0.005 0 0.01 0 0.015 0 40.676 0 71.674-0.298 88.328-0.458 5.388-0.052 9.327-0.09 11.679-0.1C193.85 211.572 190.635 199.159 181.509 192.193z" fill="#09aac5" stroke-width="none" opacity="1"></path><path id="SvgjsPath2998" d="M23.439 189.002c-1.117 0.595-2.181 1.252-3.204 1.955 49.803 12.038 110.22 9.005 161.174 1.236 -1.131-0.854-2.354-1.625-3.673-2.303C129.006 198.106 71.062 201.817 23.439 189.002z" fill="#009cb6" stroke-width="none" opacity="1"></path><path id="SvgjsPath2999" d="M181.629 188.306c-89.42 12.081-124.385 7.031-161.52-0.891 -13.279 5.312-17.9 21.352-17.9 35.71 0.17 0 0.33 0 0.49 0 105.661 1.193 182.323-0.04 193.91-0.04C195.509 206.252 195.316 195.321 181.629 188.306zM20.239 188.125c49.132 14.134 109.964 10.021 160.36 1.28 1 0.591 1.992 1.079 3.67 2.35 -52.607 8.26-115.869 11.615-167.18-1.569C18.089 189.426 19.149 188.745 20.239 188.125zM2.769 222.605c1.961-14.393 4.62-24.719 13.97-32.15 50.694 14.553 116.182 11.469 168.26 1.86 8.309 6.651 7.884 13.707 11.01 30.32C140.967 222.022 68.396 221.847 2.769 222.605z" fill="#008197" stroke-width="none" opacity="1"></path></g><g id="svga-group-head" ><g id="svga-group-ears-left" transform="matrix(0.9499999 0 0 0.9499999 2.3741711516128348 4.847724696767898) translate(3.0000002 1.0000000005838672e-7)" style="display:none;"><path id="SvgjsPath3075" d="M47.001 83.974c-1.376-2.313-5.638-7.997-9.98-6.603 -2.749 0.882-3.293 3.765-3.735 6.311 -0.588 3.386 0.471 10.083 1.389 12.503 0.881 2.325 3.533 6.816 5.264 8.527 2.13 2.1 4.775 8.793 5.194 9.487 0.66 1.097 1.536 2.745 4.122 2.538 2.853-0.229 4.584-1.742 5.856-1.999C58.253 114.109 50.582 89.995 47.001 83.974z" fill="#f0c7b1" stroke="#c27b55" stroke-width="1.5" opacity="1"></path><path id="SvgjsPath3076" d="M44.197 97.997c-0.132-0.548 0.007-1.47 0.142-2.362 0.124-0.812 0.24-1.579 0.169-2.121 -0.267-2.032-1.773-5.893-2.757-7.985 -1.132-2.407-2.963-5.439-5.262-6.221 -0.95-0.324-1.575 0.063-1.938 0.456 -0.266 0.289-0.325 0.627-0.238 0.667 0.086 0.04 0.285-0.24 0.572-0.504 0.235-0.216 0.579-0.402 1.051-0.363 -0.19 1.011-1.167 6.49-0.744 10.225 0.333 2.938 1.593 5.131 1.79 5.46 0.029 0.346 0.077 0.685 0.148 1.014 0.929 4.287 4.971 9.163 6.378 10.758 0.259 0.295 0.531 0.47 0.598 0.398 0.066-0.072-0.094-0.364-0.353-0.66 -1.388-1.585-5.391-6.442-6.289-10.579 -0.952-4.389 2.318-10.896 3.048-12.272 0.371 0.646 0.687 1.267 0.93 1.785 0.19 0.406 0.402 0.881 0.619 1.395 -0.429 0.718-3.434 5.958-2.338 10.153 0.406 1.546 2.235 3.54 3.447 4.086 0.667 0.301 0.919 0.75 1.209 1.271 0.336 0.604 0.718 1.288 1.828 1.784 0.225 0.102 0.429 0.142 0.61 0.142 0.313 0 0.551-0.126 0.725-0.276 0.018 0.266 0.017 0.604 0.009 0.917 -0.012 0.404 0.042 0.737 0.137 0.745 0.094 0.008 0.196-0.313 0.207-0.717 0.016-0.496 0.013-1.11-0.072-1.403 -0.248-0.865-1.008-1.841-1.813-2.875C45.221 99.896 44.403 98.844 44.197 97.997zM36.95 94.196c-2.177-6.731 0.656-12.54 1.144-13.464 0.85 0.775 1.6 1.811 2.21 2.824C39.86 84.365 37.041 89.669 36.95 94.196zM46.341 104.042c-1.004-0.447-1.339-1.051-1.666-1.633 -0.293-0.527-0.598-1.072-1.369-1.42 -0.168-0.075-0.352-0.191-0.542-0.323 -2.486-5.906 0.272-8.488 0.963-9.017 0.211 0.722 0.369 1.384 0.439 1.915 0.063 0.488-0.052 1.263-0.167 2.012 -0.142 0.929-0.286 1.89-0.137 2.512 0.226 0.926 1.069 2.009 1.884 3.057 0.723 0.929 1.466 1.888 1.721 2.67C47.359 103.972 47.017 104.345 46.341 104.042z" fill="#c27b55" stroke-width="none" opacity="1"></path></g><g id="svga-group-ears-right" transform="matrix(0.9499999 0 0 0.9499999 7.612725023769201 4.847724696767898) translate(-3.0000002 1.0000000005838672e-7)" style="display:none;"><path id="SvgjsPath3077" d="M152.736 83.974c1.377-2.313 5.639-7.997 9.98-6.603 2.75 0.882 3.293 3.765 3.736 6.311 0.588 3.386-0.471 10.083-1.389 12.503 -0.881 2.325-3.533 6.816-5.266 8.527 -2.129 2.1-4.775 8.793-5.193 9.487 -0.658 1.097-1.535 2.745-4.121 2.538 -2.854-0.229-4.584-1.742-5.857-1.999C141.484 114.109 149.156 89.995 152.736 83.974z" fill="#f0c7b1" stroke="#c27b55" stroke-width="1.5" opacity="1"></path><path id="SvgjsPath3078" d="M153.727 100.913c-0.805 1.033-1.564 2.009-1.813 2.875 -0.086 0.293-0.088 0.907-0.072 1.403 0.012 0.404 0.113 0.725 0.207 0.717s0.148-0.341 0.137-0.745c-0.008-0.313-0.008-0.651 0.01-0.917 0.174 0.15 0.412 0.276 0.725 0.276 0.182 0 0.385-0.04 0.609-0.142 1.109-0.496 1.492-1.18 1.828-1.784 0.289-0.52 0.543-0.969 1.209-1.271 1.213-0.546 3.041-2.54 3.447-4.086 1.096-4.194-1.908-9.435-2.338-10.153 0.217-0.513 0.43-0.988 0.619-1.395 0.244-0.518 0.559-1.139 0.93-1.785 0.73 1.377 4 7.883 3.049 12.272 -0.896 4.137-4.9 8.994-6.289 10.579 -0.258 0.296-0.418 0.588-0.352 0.66 0.066 0.071 0.338-0.104 0.598-0.398 1.406-1.596 5.449-6.471 6.379-10.758 0.07-0.329 0.117-0.668 0.146-1.014 0.197-0.329 1.459-2.523 1.791-5.46 0.422-3.735-0.555-9.214-0.744-10.225 0.473-0.039 0.814 0.146 1.051 0.363 0.287 0.264 0.486 0.544 0.572 0.504s0.027-0.378-0.238-0.667c-0.363-0.393-0.988-0.779-1.938-0.456 -2.299 0.782-4.131 3.814-5.262 6.221 -0.984 2.093-2.49 5.953-2.758 7.985 -0.072 0.542 0.045 1.309 0.17 2.121 0.135 0.892 0.273 1.814 0.141 2.362C155.336 98.844 154.518 99.896 153.727 100.913zM159.434 83.555c0.611-1.013 1.361-2.049 2.211-2.824 0.488 0.925 3.32 6.733 1.145 13.464C162.697 89.669 159.879 84.365 159.434 83.555zM152.27 103.816c0.254-0.782 0.998-1.741 1.721-2.67 0.816-1.048 1.658-2.131 1.885-3.057 0.148-0.622 0.004-1.583-0.137-2.512 -0.115-0.749-0.23-1.524-0.166-2.012 0.068-0.531 0.227-1.193 0.438-1.915 0.691 0.529 3.449 3.111 0.965 9.017 -0.191 0.132-0.375 0.248-0.543 0.323 -0.771 0.348-1.074 0.893-1.369 1.42 -0.326 0.582-0.662 1.186-1.666 1.633C152.721 104.345 152.379 103.972 152.27 103.816z" fill="#c27b55" stroke-width="none" opacity="1"></path></g><g id="svga-group-faceshape-wrap" transform="matrix(0.9599996900000001 0 0 0.9997996900000001 3.994790938637877 0.01603851542890311)"><g id="svga-group-faceshape-single" ><path id="SvgjsPath3000" d="M158.785 76.762l-0.005 0c-0.012 0.053-10.717 44.373-18.919 56.95 -6.452 9.895-28.166 25.54-39.84 25.558 -11.671 0.02-33.437-15.559-39.918-25.433C51.861 121.285 41.017 77 41.005 76.946h-0.001c-1.298-4.911-1.994-10.066-2.002-15.382C38.949 28.09 66.155 0.919 99.773 0.867c33.621-0.052 60.913 27.033 60.964 60.507C160.746 66.69 160.068 71.846 158.785 76.762z" fill="#f0c7b1" stroke-width="none" opacity="1"></path><path id="SvgjsPath3001" d="M125.766 6.622c19.104 10.248 32.075 30.355 32.039 53.476 -0.009 5.316-0.704 10.471-2.003 15.382h-0.001c-0.012 0.053-10.856 44.339-19.099 56.891 -5.946 9.061-24.555 25.121-36.833 25.121 -12.279 0-30.886-16.061-36.833-25.121 -8.242-12.552-19.086-56.837-19.098-56.891h-0.001c-1.298-4.911-1.994-10.066-2.002-15.382C41.898 36.977 54.87 16.87 73.972 6.622 53.277 16.324 38.963 37.28 39.001 61.564c0.008 5.316 0.704 10.471 2.002 15.382h0.001c0.012 0.053 10.856 44.339 19.098 56.891 4.416 6.728 15.922 16.095 26.5 21.382 -0.529-0.226-1.062-0.466-1.599-0.717 5.408 2.875 10.664 4.763 14.713 4.768 0.049 0 0.103-0.005 0.152-0.005s0.103 0.005 0.152 0.005c4.049-0.005 9.305-1.893 14.714-4.768 -0.538 0.253-1.071 0.491-1.601 0.718 10.577-5.287 22.085-14.655 26.501-21.383 8.242-12.552 19.087-56.837 19.098-56.891h0.002c1.298-4.911 1.994-10.066 2.002-15.382C160.775 37.28 146.462 16.324 125.766 6.622z" fill="#e8b9a0" stroke-width="none" opacity="1"></path><path id="SvgjsPath3002" d="M158.785 76.762l-0.005 0c-0.012 0.053-10.717 44.373-18.919 56.95 -6.452 9.895-28.166 25.54-39.84 25.558 -11.671 0.02-33.437-15.559-39.918-25.433C51.861 121.285 41.017 77 41.005 76.946h-0.001c-1.298-4.911-1.994-10.066-2.002-15.382C38.949 28.09 66.155 0.919 99.773 0.867c33.621-0.052 60.913 27.033 60.964 60.507C160.746 66.69 160.068 71.846 158.785 76.762z" fill="none" stroke="#c27b55" stroke-width="1.5" opacity="1"></path></g></g><g id="svga-group-mouth-single" ><path id="SvgjsPath3048" d="M100.091 139.322c-4.952 0-6.142-3.033-6.142-3.033 6.246 2.316 11.836-0.124 11.836-0.124S104.446 139.322 100.091 139.322z" fill="url(#SvgjsLinearGradient3049)" opacity="1"></path><path id="SvgjsPath3052" d="M85.595 129.671c2.677-0.132 7.545-1.077 10.096-0.988 1.319 0.046 2.63 0.953 4.007 1.242 0.958 0.202 3.935-1.1 4.915-1.162 2.572-0.162 7.409 0.744 9.771 0.92 0.13 0.011 0 0 0 0s-5.776 7.727-14.463 7.725C90.09 137.406 85.595 129.671 85.595 129.671S85.463 129.678 85.595 129.671z" fill="#f771a9" stroke="#e85391" stroke-width="0.75" opacity="1"></path><path id="SvgjsPath3053" d="M114.739 129.405c-0.045-0.131-0.461-0.189-0.624-0.139 -0.3 0.094-0.663 0.521-1.313 0.686 -0.748 0.191-5.021 1.431-6.193 1.49 -2.365 0.118-4.438 0.943-6.76 0.938 -2.323-0.005-4.34-0.929-6.716-1.058 -1.18-0.065-5.194-1.216-5.947-1.4 -0.65-0.16-0.89-0.574-1.162-0.686 -0.189-0.077-0.652-0.02-0.743 0.105 -0.079 0.107 0.088 0.609 0.2 0.75 0.271 0.336 1.103 0.506 1.667 0.647 0.779 0.199 4.759 1.366 5.949 1.433 2.305 0.13 4.308 1.125 6.612 1.127 2.306 0.003 4.405-0.904 6.729-1.022 1.195-0.062 5.53-1.313 6.332-1.513 0.58-0.146 1.388-0.399 1.672-0.68C114.58 129.95 114.785 129.538 114.739 129.405z" fill="#c92066" stroke-width="none" opacity="1"></path><path id="SvgjsPath3054" d="M99.799 136.138c-3.914 0-7.707-1.246-10.289-3.693 1.36 0.19 2.83 0.207 4.269 0.403 1.773 0.242 3.429 0.921 5.248 1.034 1.968 0.125 3.916-0.495 5.886-0.841 1.644-0.289 4.21-1.067 5.742-1.302C107.729 133.982 103.577 136.138 99.799 136.138zM105.256 131.043c1.49-0.149 3.855-0.879 5.226-1.04 -1.406-0.413-3.829-0.279-5.576-0.441 -1.506-0.139-3.244 0.861-4.817 1.016 -1.774 0.175-2.94-1.233-4.607-1.369 -1.809-0.147-3.787 0.559-5.336 0.915 1.387 0.188 2.877 0.239 4.309 0.517 1.753 0.341 3.405 0.992 5.223 1.054C101.537 131.757 103.419 131.226 105.256 131.043z" fill="#ff8ebd" stroke-width="none" opacity="1"></path><path id="SvgjsPath3055" d="M105.695 133.406c-0.308 0.01-0.625 0.025-0.93 0.051 -0.351 0.028-0.668 0.069-0.961 0.123 -0.538 0.099-1.074 0.233-1.638 0.369 -0.888 0.216-1.726 0.392-2.662 0.391 -0.15 0-0.301-0.007-0.452-0.017 -0.764-0.055-1.521-0.217-2.191-0.412 -0.693-0.204-1.353-0.401-2.019-0.492 -0.128-0.017-0.259-0.029-0.387-0.042 -0.409-0.036-0.836-0.052-1.255-0.063 1.734 1.396 4.128 2.038 6.468 2.041C102.079 135.356 103.946 134.512 105.695 133.406z" fill="#ffa8cc" stroke-width="none" opacity="1"></path></g><g id="svga-group-eyes-left" ><g id="svga-group-eyesback-left"><path id="SvgjsPath3151" d="M61.952 84.523c-0.506-2.285 5.191-3.973 12.711-3.051 7.518 0.923 12.738 5.524 12.052 7.844 -0.38 1.286-10.639 3.245-14.253 2.847C68.798 91.758 63.174 90.04 61.952 84.523z" fill="url(#SvgjsRadialGradient3152)" opacity="1"></path></g><g id="svga-group-eyesiriswrapper-left" transform="translate(-0.75 -0.5)"><g id="svga-group-eyesiriscontrol-left" ><g id="svga-group-eyesiris-left" ><path id="SvgjsPath3331" d="M83.199 89.25c-1.231 4.522-5.896 7.187-10.429 5.944 -4.528-1.241-7.203-5.918-5.97-10.442 1.23-4.526 5.905-7.19 10.434-5.947C81.761 80.045 84.433 84.723 83.199 89.25z" fill="#7b5c33" stroke="#4d3009" stroke-width="0.5" opacity="1"></path><path id="SvgjsPath3332" d="M82.994 87.526c-0.625 5.021-4.353 7.638-8.432 7.365 -3.765-0.253-7.131-3.031-7.443-7.828 1.302-0.374 3.031 0.234 4.549 0.002 -0.005 0.055-0.023 0.104-0.025 0.16 -0.12 1.842 1.357 3.446 3.299 3.577 1.946 0.13 3.62-1.263 3.74-3.104 0.013-0.24-0.002-0.476-0.038-0.702C79.997 87.2 81.648 86.999 82.994 87.526z" fill="#8a6d47" stroke-width="none" opacity="1"></path><path id="SvgjsPath3333" d="M76.229 84.164c-1.869-0.535-3.777 0.533-4.26 2.396 -0.483 1.853 0.642 3.793 2.51 4.329 1.873 0.537 3.781-0.532 4.266-2.386C79.23 86.639 78.101 84.7 76.229 84.164z" fill="#000000" stroke-width="none" opacity="0.9"></path><path id="SvgjsPath3334" d="M76.229 84.164c-1.869-0.535-3.777 0.533-4.26 2.396 -0.483 1.853 0.642 3.793 2.51 4.329 1.873 0.537 3.781-0.532 4.266-2.386C79.23 86.639 78.101 84.7 76.229 84.164z" fill="none" stroke="#4d3009" stroke-width="0.75" opacity="1"></path><path id="SvgjsPath3335" d="M70.977 92.181c-0.177 0.619-1.142 0.356-0.965-0.266 0.171-0.6 0.633-0.967 0.926-1.495 0.313-0.564 1.177-0.06 0.863 0.505C71.56 91.36 71.114 91.696 70.977 92.181L70.977 92.181zM72.516 91.194c-0.266 0.31-0.614 1.458-0.766 1.834 -0.241 0.598 0.727 0.856 0.965 0.266 0.082-0.205 0.362-1.223 0.508-1.393C73.64 91.415 72.936 90.704 72.516 91.194L72.516 91.194zM74.598 94.151c0.522-0.602 0.47-1.292 0.459-2.041 -0.01-0.644-1.01-0.645-1 0 0.006 0.415 0.13 0.992-0.166 1.334C73.47 93.929 74.175 94.639 74.598 94.151L74.598 94.151zM75.619 91.985c0.008 0.621 0.084 1.226 0.268 1.82 0.19 0.614 1.155 0.352 0.965-0.266 -0.159-0.513-0.226-1.019-0.232-1.555C76.611 91.341 75.611 91.34 75.619 91.985L75.619 91.985z" fill="#ffffff" stroke-width="none" opacity="0.5"></path><path id="SvgjsPath3336" d="M80.946 85.543c-0.985 0.59-2.466 0.059-3.305-1.188 -0.838-1.248-0.713-2.739 0.273-3.328 0.984-0.593 2.467-0.061 3.301 1.187C82.053 83.462 81.932 84.952 80.946 85.543z" fill="#ffffff" stroke-width="none" opacity="0.8"></path></g></g></g><g id="svga-group-eyesfront-left"><path id="SvgjsPath3173" d="M55.5 88c0 13.807 8.06 24.999 18 24.999s18-11.192 18-24.999c0-13.808-8.06-25-18-25S55.5 74.192 55.5 88zM61.952 84.523c-0.506-2.285 5.191-3.973 12.711-3.051 7.518 0.923 12.738 5.524 12.052 7.844 -0.38 1.286-10.639 3.245-14.253 2.847C68.798 91.758 63.174 90.04 61.952 84.523z" fill="#f0c7b1" stroke-width="none" opacity="1"></path><path id="SvgjsPath3174" d="M72.462 92.163c3.614 0.398 13.873-1.561 14.253-2.847 0.687-2.32-4.534-6.921-12.052-7.844 -6.46-0.792-11.563 0.345-12.556 2.128 0.898-6.4 7.7-11.397 15.987-11.434 8.911-0.037 16.148 5.676 16.172 12.765 0.021 7.088-7.185 12.862-16.095 12.902 -8.913 0.037-16.149-5.676-16.173-12.764 0-0.105 0.016-0.208 0.019-0.313C63.348 90.083 68.852 91.764 72.462 92.163z" fill="url(#SvgjsRadialGradient3175)" opacity="1"></path><path id="SvgjsPath3179" d="M61.952 84.523c-0.506-2.285 5.191-3.973 12.711-3.051 7.518 0.923 12.738 5.524 12.052 7.844 -0.38 1.286-10.639 3.245-14.253 2.847C68.798 91.758 63.174 90.04 61.952 84.523z" fill="url(#SvgjsRadialGradient3180)" opacity="1"></path><path id="SvgjsPath3183" d="M62.349 79.417c4.208-1.978 9.35-2.16 13.838-1.005 2.404 0.561 4.965 1.285 7.063 2.638 1.945 1.135 3.525 2.5 5.002 4.19 -1.342-1.701-2.773-3.118-4.623-4.27 -2.276-1.416-4.769-2.294-7.364-2.916C71.678 76.928 66.542 77.184 62.349 79.417z" fill="#c27b55" stroke-width="none" opacity="1"></path><path id="SvgjsPath3184" d="M57.318 80.972c0 0 2.328 0.881 3.595 0.62 -0.39-0.459-1.096-1.604-1.096-1.604s1.853 0.551 3.151 0.032c0.88-0.352 4.065-1 5.456-1.066 1.687-0.082 5.073 0.125 6.735 0.424 3.374 0.608 8.985 2.63 11.678 7.184 0.255 0.572 1.407 0.921 1.407 0.921s-1.02-0.215-1.149 0.042c-0.282 0.561 1.298 2.016 1.496 2.197 -0.161-0.145-1.289-1.135-1.722-0.967 -0.061 0.022-0.137 0.388-0.155 0.482 0.3-2.426-4.838-6.746-12.052-7.604 -7.52-0.894-13.217 0.743-12.711 2.958 1.222 5.348 6.846 7.013 10.51 7.405 2.526 0.271 8.298-0.577 11.675-1.537l1.011-0.317c-1.999 1.009-7.524 2.195-9.767 2.403 -0.744 0.07-2.24 0.104-2.986 0.085 -5.949-0.158-10.16-3.179-11.729-7.26 -0.125-0.328-0.494-0.619-0.838-0.696 -1.604-0.361-5.096-1.811-5.096-1.811 2.32 0.361 3.483 0.674 5.305 0.059C58.257 82.256 57.318 80.972 57.318 80.972z" fill="#000000" stroke-width="none" opacity="1"></path></g></g><g id="svga-group-eyes-right" ><g id="svga-group-eyesback-right"><path id="SvgjsPath3158" d="M138.048 84.523c0.506-2.285-5.191-3.973-12.711-3.051 -7.518 0.923-12.738 5.524-12.052 7.844 0.38 1.286 10.639 3.245 14.253 2.847C131.202 91.758 136.826 90.04 138.048 84.523z" fill="url(#SvgjsRadialGradient3159)" opacity="1"></path></g><g id="svga-group-eyesiriswrapper-right" transform="translate(0.75 -0.5)"><g id="svga-group-eyesiriscontrol-right" ><g id="svga-group-eyesiris-right" ><path id="SvgjsPath3337" d="M133.199 89.25c-1.231 4.522-5.896 7.187-10.429 5.944 -4.528-1.241-7.203-5.918-5.97-10.442 1.23-4.526 5.905-7.19 10.434-5.947C131.761 80.045 134.433 84.723 133.199 89.25z" fill="#7b5c33" stroke="#4d3009" stroke-width="0.5" opacity="1"></path><path id="SvgjsPath3338" d="M132.994 87.526c-0.625 5.021-4.353 7.638-8.432 7.365 -3.765-0.253-7.131-3.031-7.443-7.828 1.302-0.374 3.031 0.234 4.549 0.002 -0.005 0.055-0.023 0.104-0.025 0.16 -0.12 1.842 1.357 3.446 3.299 3.577 1.946 0.13 3.62-1.263 3.74-3.104 0.013-0.24-0.002-0.476-0.038-0.702C129.997 87.2 131.648 86.999 132.994 87.526z" fill="#8a6d47" stroke-width="none" opacity="1"></path><path id="SvgjsPath3339" d="M126.229 84.164c-1.869-0.535-3.777 0.533-4.26 2.396 -0.483 1.853 0.642 3.793 2.51 4.329 1.873 0.537 3.781-0.532 4.266-2.386C129.23 86.639 128.101 84.7 126.229 84.164z" fill="#000000" stroke-width="none" opacity="0.9"></path><path id="SvgjsPath3340" d="M126.229 84.164c-1.869-0.535-3.777 0.533-4.26 2.396 -0.483 1.853 0.642 3.793 2.51 4.329 1.873 0.537 3.781-0.532 4.266-2.386C129.23 86.639 128.101 84.7 126.229 84.164z" fill="none" stroke="#4d3009" stroke-width="0.75" opacity="1"></path><path id="SvgjsPath3341" d="M120.977 92.181c-0.177 0.619-1.142 0.356-0.965-0.266 0.171-0.6 0.633-0.967 0.926-1.495 0.313-0.564 1.177-0.06 0.863 0.505C121.56 91.36 121.114 91.696 120.977 92.181L120.977 92.181zM122.516 91.194c-0.266 0.31-0.614 1.458-0.766 1.834 -0.241 0.598 0.727 0.856 0.965 0.266 0.082-0.205 0.362-1.223 0.508-1.393C123.64 91.415 122.936 90.704 122.516 91.194L122.516 91.194zM124.598 94.151c0.522-0.602 0.47-1.292 0.459-2.041 -0.01-0.644-1.01-0.645-1 0 0.006 0.415 0.13 0.992-0.166 1.334C123.47 93.929 124.175 94.639 124.598 94.151L124.598 94.151zM125.619 91.985c0.008 0.621 0.084 1.226 0.268 1.82 0.19 0.614 1.155 0.352 0.965-0.266 -0.159-0.513-0.226-1.019-0.232-1.555C126.611 91.341 125.611 91.34 125.619 91.985L125.619 91.985z" fill="#ffffff" stroke-width="none" opacity="0.5"></path><path id="SvgjsPath3342" d="M130.946 85.543c-0.985 0.59-2.466 0.059-3.305-1.188 -0.839-1.248-0.714-2.739 0.272-3.328 0.984-0.593 2.467-0.061 3.301 1.187C132.054 83.462 131.932 84.952 130.946 85.543z" fill="#ffffff" stroke-width="none" opacity="0.8"></path></g></g></g><g id="svga-group-eyesfront-right"><path id="SvgjsPath3193" d="M126.5 63c-9.94 0-18 11.192-18 25 0 13.807 8.06 24.999 18 24.999s18-11.192 18-24.999C144.5 74.192 136.44 63 126.5 63zM127.538 92.163c-3.614 0.398-13.873-1.561-14.253-2.847 -0.687-2.32 4.534-6.921 12.052-7.844 7.52-0.922 13.217 0.767 12.711 3.051C136.826 90.04 131.202 91.758 127.538 92.163z" fill="#f0c7b1" stroke-width="none" opacity="1"></path><path id="SvgjsPath3194" d="M127.538 92.163c-3.614 0.398-13.873-1.561-14.253-2.847 -0.687-2.32 4.534-6.921 12.052-7.844 6.46-0.792 11.563 0.345 12.556 2.128 -0.898-6.4-7.7-11.397-15.987-11.434 -8.911-0.037-16.148 5.676-16.172 12.765 -0.021 7.088 7.185 12.862 16.095 12.902 8.913 0.037 16.149-5.676 16.173-12.764 0-0.105-0.016-0.208-0.019-0.313C136.652 90.083 131.148 91.764 127.538 92.163z" fill="url(#SvgjsRadialGradient3195)" opacity="1"></path><path id="SvgjsPath3199" d="M138.048 84.523c0.506-2.285-5.191-3.973-12.711-3.051 -7.518 0.923-12.738 5.524-12.052 7.844 0.38 1.286 10.639 3.245 14.253 2.847C131.202 91.758 136.826 90.04 138.048 84.523z" fill="url(#SvgjsRadialGradient3200)" opacity="1"></path><path id="SvgjsPath3203" d="M137.651 79.417c-4.208-1.978-9.35-2.16-13.838-1.005 -2.404 0.561-4.965 1.285-7.063 2.638 -1.945 1.135-3.525 2.5-5.002 4.19 1.342-1.701 2.773-3.118 4.623-4.27 2.276-1.416 4.769-2.294 7.364-2.916C128.322 76.928 133.458 77.184 137.651 79.417z" fill="#c27b55" stroke-width="none" opacity="1"></path><path id="SvgjsPath3204" d="M142.682 80.972c0 0-2.328 0.881-3.595 0.62 0.39-0.459 1.096-1.604 1.096-1.604s-1.853 0.551-3.151 0.032c-0.88-0.352-4.065-1-5.456-1.066 -1.687-0.082-5.073 0.125-6.735 0.424 -3.374 0.608-8.985 2.63-11.678 7.184 -0.255 0.572-1.407 0.921-1.407 0.921s1.02-0.215 1.149 0.042c0.282 0.561-1.298 2.016-1.496 2.197 0.161-0.145 1.289-1.135 1.722-0.967 0.061 0.022 0.137 0.388 0.155 0.482 -0.3-2.426 4.838-6.746 12.052-7.604 7.52-0.894 13.217 0.743 12.711 2.958 -1.222 5.348-6.846 7.013-10.51 7.405 -2.526 0.271-8.298-0.577-11.675-1.537l-1.011-0.317c1.999 1.009 7.524 2.195 9.767 2.403 0.744 0.07 2.24 0.104 2.986 0.085 5.949-0.158 10.16-3.179 11.729-7.26 0.125-0.328 0.494-0.619 0.838-0.696 1.604-0.361 5.096-1.811 5.096-1.811 -2.32 0.361-3.483 0.674-5.305 0.059C141.743 82.256 142.682 80.972 142.682 80.972z" fill="#000000" stroke-width="none" opacity="1"></path></g></g><g id="svga-group-facehighlight-single" ><path id="SvgjsPath2753" d="M140.204 113.007c0.035 22.275-17.995 40.365-40.273 40.396 -22.274 0.036-40.361-17.993-40.396-40.272C59.501 90.857 77.53 72.77 99.808 72.735 122.083 72.701 140.171 90.73 140.204 113.007z" fill="url(#SvgjsRadialGradient2754)" opacity="1"></path><path id="SvgjsPath2757" d="M135,55.999c0,19.329-15.671,35-35,35c-19.329,0-35-15.671-35-35s15.671-35,35-35C119.329,20.999,135,36.67,135,55.999z" fill="url(#SvgjsRadialGradient2758)" opacity="1"></path></g><g id="svga-group-eyebrows-left" ><path id="SvgjsPath3383" d="M74.799 69.068c-4.425-0.475-21.252 3.714-21.252 3.714s16.789-6.74 23.757-5.667c5.188 0.798 14.397 5.077 12.706 7.339C88.649 76.275 84.408 70.1 74.799 69.068z" fill="#a46c47" stroke-width="none" opacity="1"></path></g><g id="svga-group-eyebrows-right" ><path id="SvgjsPath3384" d="M109.731 74.187c-1.713-2.292 7.592-6.31 13.546-6.804 7.117-0.59 22.914 4.085 22.914 4.085s-15.9-2.628-20.377-2.106C115.998 70.506 111.11 76.031 109.731 74.187z" fill="#a46c47" stroke-width="none" opacity="1"></path></g><g id="svga-group-nose-single" ><path id="SvgjsPath3056" d="M92.281 116.235c-0.745 2.063 5.028 4.289 7.218 4.426 2.374 0.147 9.024-2.899 7.896-4.991 -1.185-2.197-5.63-0.286-7.547-0.286C97.94 115.384 93.276 113.479 92.281 116.235z" fill="#e1ac8f" stroke-width="none" opacity="1"></path><path id="SvgjsPath3057" d="M102.207 117.221c-0.243-0.522 1.194-1.333 1.748-1.493 0.777-0.226 2.505 0.238 2.438 0.831 -0.06 0.521-1.603-0.169-2.105-0.022C103.767 116.687 102.435 117.712 102.207 117.221zM95.214 116.742c0.706 0 1.753 0.457 1.945 0.057 0.229-0.479-1.56-1.065-2.086-1 -0.434 0.052-1.991 0.958-1.777 1.338C93.496 117.49 94.284 116.742 95.214 116.742z" fill="#c27b55" stroke-width="none" opacity="1"></path><path id="SvgjsPath3058" d="M99.857 113.479c0.669 0 1.807-0.637 1.978-1.9 0.754-5.575-0.521-20.246-1.978-20.246 -1.365 0-2.508 15.024-2.155 20.246C97.789 112.86 99.099 113.479 99.857 113.479" fill="#fff5ef" stroke-width="none" opacity="0.2"></path></g><g id="svga-group-hair-front" transform="matrix(0.9599996900000001 0 0 0.9997996900000001 4.000032678479798 0.009130416187190349)"><path id="SvgjsPath3146" d="M60.35 193.688c1.158-14.492 0.475-21.283-0.77-33.608 -2.595-25.694-3.31-42.128-4.043-68.959 -0.316-11.197-0.641-22.776 3.313-33.606 3.554-10.115 11.301-18.694 20.722-22.95 7.624-3.447 14.646-3.392 22.43-3.392 9.351 0 15.884 0.73 21.614 4.47 16.191 10.58 17.635 25.628 19.629 46.457 2.178 22.685 1.116 25.168 1.134 46.728 0.03 49.463-3.013 57.144 2.977 99.22 6.649 0.343 26.664-167.79 4.624-195.021 -12.594-15.575-87.972-7.296-98.007-0.403 -16.856 11.572 1.878 194.396 1.878 194.396C55.895 225.376 60.088 196.829 60.35 193.688z" fill="#ddbc9b" stroke-width="none" opacity="0.1" stroke="none"></path><path id="SvgjsPath3147" d="M58.48 202.358c1.212-15.154 0.495-22.254-0.806-35.143 -2.714-26.865-3.462-44.05-4.228-72.104 -0.33-11.708-0.671-23.814 3.464-35.139 3.719-10.576 11.822-19.547 21.678-23.997 7.975-3.604 15.32-3.547 23.465-3.547 9.779 0 16.612 0.765 22.609 4.675 16.939 11.062 18.443 26.796 20.532 48.575 2.279 23.72 1.17 26.316 1.183 48.859 0.037 51.718-3.554 59.332 2.714 103.329 6.955 0.357 27.631 1.225 34.401 0.728 5.637-57.613-7.946-77.721-10.325-127.722 -1.139-24.668-2.271-67.687-25.324-96.161C134.665-1.573 119.08-6.259 101.801-2.154 88.552-4.505 75.76-1.338 65.263 5.871 47.63 17.97 32.909 43.054 31.021 64.217c-2.411 27.16 2.334 39.43-2.501 66.618 -5.761 32.415-14.864 57.097-10.235 104.528 5.256 0.388 35.999 1.845 35.999 1.845C54.328 235.491 58.206 205.643 58.48 202.358z" fill="#ddbc9b" stroke-width="none" opacity="1" stroke="none"></path><path id="SvgjsPath3148" d="M156.514 238.203c-3.052-0.125-5.674-0.247-7.423-0.337 -6.268-43.997-2.677-51.611-2.714-103.329 -0.013-22.543 1.097-25.14-1.183-48.859 -2.089-21.778-3.593-37.513-20.532-48.575 -10.166-6.63-35.575-5.874-46.074-1.127 -9.855 4.45-17.959 13.421-21.678 23.997 -4.136 11.325-3.794 23.431-3.464 35.139 0.766 28.055 1.514 45.239 4.228 72.104 1.301 12.889 2.019 19.988 0.806 35.143 -0.274 3.284-4.152 33.133-4.197 34.85 0 0-3.401-0.161-8.125-0.391 0.354-11.398 5.847-22.797 6.771-34.195 1.944-48-11.669-94-0.972-143 2.916-12 7.778-22 18.475-28 9.207-5.261 26.281-6.583 32.057-2.817 0.096-0.611 0.196-1.222 0.289-1.869 1.514-8.9-1.219-12.378 1.395-18.231 -2.012 5.547 0.221 9.073-0.122 15.242 -0.069 1.079-0.416 2.695-0.861 4.65 6.292-2.681 20.152-1.896 26.556 3.025 33.178 25.495 17.501 112 22.364 169C152.767 213.505 154.927 225.928 156.514 238.203zM53.269 39.909C60.691 29.864 72.2 20.585 84.275 18.63c2.96-0.479 5.707-0.608 5.531-0.598C77.578 18.446 67.012 22.58 57.789 32.8 46.872 44.509 47.371 54.632 47.321 57.023 47.732 50.831 48.508 47.439 53.269 39.909zM109.749 21.904c1.317-0.368 4.279-1.342 8.201-1.098 15.563 0.723 34.484 18.312 36.685 42.554 0.576 5.964 1.216 24.332 0.4 10.625 -0.497-8.323-1.369-12.445-2.197-16.1 -4.167-18.454-23.161-40.319-41.44-36.366C110.345 21.765 109.749 21.904 109.749 21.904zM42.198 86.344c0.791 27.147 2.753 45.85 2.237 58.753 -1.471 16.183-3.123 29.451-3.123 29.451 -0.03 0.413 0.08-1.676 0.305-5.11C44.104 134.158 41.714 129.297 42.198 86.344zM156.817 88.121c0.417 7.484 2.223 39.41 2.494 46.176 0.227 5.292 0.263 40.677 0.381 42.338C159.72 177.225 157.602 148.345 156.817 88.121zM164.506 97.312c0.925 14.561 6.923 72.884 14.438 100.406 0.145 0.453-0.622-1.821-1.851-5.594C167.657 161.228 165.585 129.036 164.506 97.312zM38.992 117.395c-1.623 6.133-0.24 9.802-0.187 15.916 -0.286 14.263-5.243 30.714-7.033 38.957 -2.097 8.726-2.847 32.982-2.842 33.984 -0.033 1-0.85-26.039 3.125-42.239 10.377-40.344 3.92-29.618 6.383-44.87C38.791 118.026 38.992 117.395 38.992 117.395zM106.508 6.016c4.76-1.002 3.222-0.752 7.014-1.173 16.098-1.667 26.966 10.983 29.381 12.878 0.138 0.13-0.571-0.515-1.729-1.582C126.713 4.276 117.499 4.108 106.508 6.016zM57.182 29.987c6.694-6.878 14.555-16.267 30.61-16.92 6.169-0.293 9.09 1.436 10.062 1.682 0 0-8.626-4.578-25.444 3.183C66.992 20.292 60.918 26.445 57.182 29.987z" fill="#cea57c" stroke-width="none" opacity="1" stroke="none"></path><path id="SvgjsPath3149" d="M184.627 202.31c-11.808-41.571-15.057-85.129-18.904-128.688 -3.153-28.372-15.003-61.281-41.116-72.753 -2.839-1.247-27.424-2.821-39.59 0.753 -41.812 10-53.492 58.916-50.563 100 2.212 31.021-9.32 67.609-17.325 101.74 0.902-28.354 7.081-48.278 11.391-72.527 4.835-27.188 0.09-39.458 2.501-66.618C32.909 43.054 47.63 17.97 65.263 5.871 75.76-1.338 88.552-4.505 101.801-2.154c12.718-3.021 24.514-1.269 35.107 6.351 0.023 0.004 0.048 0.011 0.072 0.015 3.741 2.716 7.431 6.261 10.862 10.499 23.054 28.474 24.186 71.492 25.324 96.161C174.967 148.733 183.188 169.466 184.627 202.31zM55.419 27.308c-5.997 7.544-2.415 2.772 3.69-3.506C76.943 7.338 88.264 6.365 98.295 8.659 81.472 4.024 66.606 13.774 55.419 27.308zM111.979 11.433c11.421-3.929 25.295-1.496 39.866 21.474 10.844 18.168 10.938 40.817 11.57 43.92 0.059 0.443-0.307-1.789-0.794-5.48 -1.308-8.44-3.563-29.778-22.548-51.36C135.036 14.173 124.136 7.854 111.979 11.433zM157.705 66.21c3.031 29.726 4.887 72.826 4.887 72.826 0.056 0.683-0.711-6.873-1.462-15.11C158.358 93.735 159.653 97.339 157.705 66.21zM154.559 136.402c0.332 21.587 0.059 17.159 2.332 48.097 1.977 16.713 2.607 19.68-0.461 1.053C153.621 167.693 154.113 155.258 154.559 136.402zM164.298 144.114c3.975 29.918 3.572 29.703 4.521 45.704 1.172 16.188 1.584 18.725-0.499 0.988C167.087 180.877 166.418 167.275 164.298 144.114zM48.856 38.604C42.754 50.786 41.06 60.74 39.84 74.385c-1.997 19.679-0.178 21.159-1.365 34.119 -0.013 0.167 0.007-0.172 0.046-0.899C38.99 91.267 34.574 64.494 48.856 38.604zM60.097 37.08c-6.143 5.974-9.404 17.112-11.477 25.781 -4.44 19.145-2.167 83.919-3.542 36.666 -0.629-17.744-1.211-32.394 7.84-52.141C54.873 43.101 56.972 39.759 60.097 37.08zM46.554 137.29c0.157 11.389 1.336 12.657 2.418 25.876 1.28 12.79-2.299 33.213-2.422 35.392 -0.194 1.541 2.623-23.021 1.202-40.579C46.261 141.57 46.374 144.686 46.554 137.29zM39.933 152.671c-2.873 11.796-1.906 13.18-5.192 60.408C34.667 214.079 34.458 171.888 39.933 152.671zM66.763 29.981c0.972-0.551 14.882-11.058 28.83-6.116 1.283 0.413 2.125 0.836 2.276 0.867 0.972 0.387-5.218-2.399-11.905-1.512C75.772 24.125 68.383 29.131 66.763 29.981zM106.568 19.154c2.092-0.977 4.102-2.125 9.005-2.732 13.841-1.694 22.483 9.902 23.455 10.708 0.943 1.03-4.335-5.62-12.846-8.638 -1.473-0.502-0.018-0.072-2.558-0.81 -0.412-0.144-2.072-0.543-3.782-0.742C114.035 16.403 111.294 17.185 106.568 19.154z" fill="#ecd5bd" stroke-width="none" opacity="1" stroke="none"></path><path id="SvgjsPath3150" d="M173.267 110.867c-1.178-24.84-2.121-67.53-25.351-96.22 -14.129-17.46-30.241-20.7-46.099-16.9 -12.067-2.14-25.018 0.08-36.609 8.04 -17.327 11.89-32.358 36.84-34.284 58.42 -2.411 27.17 2.334 39.43-2.498 66.61 -6.068 34.13-14.509 55.09-10.288 104.04 0.02 0.2 0.039 0.4 0.058 0.6 0.097 0.011 0.185 0.011 0.283 0.021 10.501 0.59 22.606 1.229 35.567 1.82 0.078 0 0.156 0 0.234 0.01 30.221 1.37 65.079 2.5 95.039 2.35 0.065-0.01 0.136-0.01 0.201 0 12.37-0.08 23.902-0.37 33.927-0.96 0.047 0 0.097-0.01 0.137-0.01 0.029-0.3 0.056-0.6 0.085-0.89C189.25 181.737 175.628 160.558 173.267 110.867zM54.416 236.268c1.536-12.28 4.005-32.04 4.161-33.9 2.44-30.52-3.004-29.06-4.958-104.48 -0.33-12.77-1.069-25.69 3.383-37.88 3.695-10.51 11.659-19.44 21.626-23.94 4.336-1.96 8.955-2.93 13.65-3.39 15.722-0.35 24.649-0.5 32.33 4.51 16.568 10.82 18.312 25.76 20.487 48.5 2.284 23.77 1.167 26.22 1.187 48.85 0.021 28.521-0.205 2.311-0.933 56.49 -0.089 6.42 0.037 12.82 0.517 19.23 0.651 8.819 2.155 20.34 3.256 28.05C119.523 238.268 84.705 237.348 54.416 236.268zM94.427 32.518c1.799-0.13 3.607-0.19 5.416-0.2C98.152 32.377 96.354 32.447 94.427 32.518zM183.513 237.808c-9.936 0.359-21.563 0.51-34.159 0.5 -0.688-5.96-1.488-12.95-1.506-13.23 -0.863-8.55-1.42-17.149-1.4-25.75 0-1 4.094-80.43 1.344-106.32 -2.781-26.17-4.706-49.5-26.81-58.53 -4.655-1.91-9.715-2.36-17.064-2.26 -0.03 0-0.057 0-0.085 0 -5.331-0.16-10.474-0.18-15.472 0.55 -0.01 0-0.02 0-0.038 0 -5.456 0.8-10.726 2.47-15.839 5.8 -23.833 15.48-21.033 45.2-20.81 63.09 0.817 66.53 8.459 68.5 5.621 104.48 -0.03 0.34-1.936 18.43-3.141 30.12 -13-0.45-25.164-0.931-35.705-1.391 -0.116-1.93-0.184-3-0.184-3.08 -2.907-57.51 10.209-76.38 14.1-110.51 2.965-25.96-3.043-46.38 2.703-68.53 8.021-30.91 32.962-59.16 65.556-54.7 1.04 0.14 2.091 0.32 3.139 0.53 0.36-0.08 0.73-0.14 1.092-0.2 11.869-2.08 23.353-0.89 33.748 8.25 30.356 26.68 30.668 78.31 31.629 96.69 3.045 58.33 16.354 73.521 13.739 128.38C183.97 231.798 183.758 234.688 183.513 237.808z" fill="#af7b46" stroke-width="none" opacity="1" stroke="none"></path></g><g id="svga-group-glasses-single" transform="matrix(0.99999989 0 0 0.99999989 0.000010998900606296047 0.000009349579130457641)"><path id="SvgjsPath3380" d="M91.69 89.23c-3.71 7.46-14.12 8.15-17.78 8.15H61.79c-5.75 0-10.86-7.99-10.86-14.29v-6.16c0-0.23 0.11-0.46 0.29-0.7L91.69 89.23zM110.37 76.65c-2.07 1.43-3.39 3.35-3.39 5.92v0.5c0 2.44 0.5 4.47 1.34 6.15 3.71 7.46 14.12 8.15 17.78 8.15h12.12c4.09 0 7.85-4.05 9.68-8.66L110.37 76.65z" fill="#ffffff" stroke-width="none" opacity="0.2"></path><path id="SvgjsPath3381" d="M91.69 89.23L51.21 76.22c0.99-1.32 4.4-2.7 6.15-2.91 2.18-0.26 6.63-0.69 11.94-0.69 8.86 0 23.72 1.29 23.72 9.96v0.5C93.02 85.52 92.52 87.55 91.69 89.23zM149.07 83.08v-6.16c0-0.23-0.11-0.46-0.29-0.7 -0.99-1.32-4.4-2.7-6.15-2.91 -2.18-0.26-6.63-0.69-11.94-0.69 -6.23 0-15.41 0.64-20.33 4.03l37.53 12.06C148.64 86.85 149.07 84.9 149.07 83.08z" fill="#ffffff" stroke-width="none" opacity="0.4"></path><path id="SvgjsPath3382" d="M149.73 78.68v-1.76c0-2.1-4.9-3.99-7.01-4.25 -9.42-1.12-31.52-2.02-35.7 6.76 -2.78-0.92-5.88-1.28-7.02-1.29 -1.14 0.01-4.24 0.37-7.02 1.29 -4.17-8.77-26.27-7.88-35.7-6.76 -2.11 0.25-7.01 2.14-7.01 4.25v1.76H45.5v2.36h4.77v2.04c0 6.3 5.15 14.94 11.51 14.94h12.12c8.33 0 19.76-3.13 19.76-14.94v-0.5c0-0.76-0.1-1.46-0.29-2.12 3.46-1.07 5.55-1.29 6.62-1.31 1.07 0.01 3.16 0.24 6.62 1.31 -0.19 0.66-0.29 1.36-0.29 2.12v0.5c0 11.81 11.44 14.94 19.76 14.94h12.12c6.36 0 11.51-8.64 11.51-14.94v-2.04h4.77v-2.36H149.73zM92.86 83.08c0 13.11-14.5 14.13-18.95 14.13H61.79c-5.66 0-10.7-7.9-10.7-14.13v-6.16c0-1.31 4.09-3.18 6.29-3.44 2.17-0.26 6.62-0.69 11.92-0.69 8.8 0 23.55 1.27 23.55 9.79V83.08zM148.91 83.08c0 6.23-5.04 14.13-10.7 14.13h-12.12c-4.45 0-18.95-1.02-18.95-14.13v-0.5c0-8.52 14.76-9.79 23.55-9.79 5.31 0 9.75 0.43 11.92 0.69 2.2 0.26 6.3 2.13 6.3 3.44V83.08z" fill="#fafaf5" stroke-width="none" opacity="1"></path></g></g></g><rect id="SvgjsRect1033" width="200" height="15" x="0" y="185" fill="#ecf0f1" opacity="0.5" style="display:none;"></rect><text id="SvgjsText1034" font-family="&quot;Roboto&quot;, &quot;Helvetica Neue&quot;, Helvetica, Arial, sans-serif" style="font-size:0.84em;font-family:&quot;Roboto&quot;, &quot;Helvetica Neue&quot;, Helvetica, Arial, sans-serif;text-anchor:middle;font-weight:400;display:none;" font-size="0.84em" text-anchor="middle" font-weight="400" fill="#000000" x="100" y="185"><tspan id="SvgjsTspan1035" dy="1.2em" x="100" style="font-size:0.84em;font-family:&quot;Roboto&quot;, &quot;Helvetica Neue&quot;, Helvetica, Arial, sans-serif;text-anchor:middle;font-weight:400;">www.creartuavatar.com</tspan></text></g><defs id="SvgjsDefs1001"><radialGradient id="SvgjsRadialGradient2754" cx="100" cy="113" r="40" gradientUnits="userSpaceOnUse" class="svga-on-canvas-facehighlight-gradient-single-0"><stop id="SvgjsStop2755" stop-opacity="0.5" stop-color="#ffe4d6" offset="0" ></stop><stop id="SvgjsStop2756" stop-opacity="0" stop-color="#f0c7b1" offset="0.9" ></stop></radialGradient><radialGradient id="SvgjsRadialGradient2758" cx="100" cy="57" r="36" gradientUnits="userSpaceOnUse" class="svga-on-canvas-facehighlight-gradient-single-1"><stop id="SvgjsStop2759" stop-opacity="0.5" stop-color="#ffe4d6" offset="0" ></stop><stop id="SvgjsStop2760" stop-opacity="0" stop-color="#f0c7b1" offset="0.9" ></stop></radialGradient><linearGradient id="SvgjsLinearGradient3004" x1="99.98" y1="171.27" x2="99.98" y2="136.351" gradientUnits="userSpaceOnUse" class="svga-on-canvas-chinshadow-gradient-single-0"><stop id="SvgjsStop3005" stop-opacity="0.8" stop-color="#e1ac8f" offset="0" ></stop><stop id="SvgjsStop3006" stop-opacity="1" stop-color="#c27b55" offset="0.7" ></stop></linearGradient><linearGradient id="SvgjsLinearGradient3049" x1="100" y1="141" x2="100" y2="138" gradientUnits="userSpaceOnUse" class="svga-on-canvas-mouth-gradient-single-0"><stop id="SvgjsStop3050" stop-opacity="1" stop-color="#e8b9a0" offset="0.1" ></stop><stop id="SvgjsStop3051" stop-opacity="1" stop-color="#e1ac8f" offset="1" ></stop></linearGradient><radialGradient id="SvgjsRadialGradient3152" cx="129.05" cy="85.956" r="15.117" gradientTransform="matrix(-0.9945 0.1042 0.1042 0.9945 192.8274 -12.4637)" gradientUnits="userSpaceOnUse" class="svga-on-canvas-eyesback-gradient-left-0"><stop id="SvgjsStop3153" stop-opacity="1" stop-color="#ffffff" offset="0" ></stop><stop id="SvgjsStop3154" stop-opacity="1" stop-color="#fcfdfd" offset="0.316" ></stop><stop id="SvgjsStop3155" stop-opacity="1" stop-color="#f4f7f8" offset="0.505" ></stop><stop id="SvgjsStop3156" stop-opacity="1" stop-color="#e5ecef" offset="0.661" ></stop><stop id="SvgjsStop3157" stop-opacity="1" stop-color="#d8e2e7" offset="0.76" ></stop></radialGradient><radialGradient id="SvgjsRadialGradient3159" cx="129.049" cy="85.956" r="15.117" gradientTransform="matrix(0.9945 0.1042 -0.1042 0.9945 7.1735 -12.4637)" gradientUnits="userSpaceOnUse" class="svga-on-canvas-eyesback-gradient-right-0"><stop id="SvgjsStop3160" stop-opacity="1" stop-color="#ffffff" offset="0" ></stop><stop id="SvgjsStop3161" stop-opacity="1" stop-color="#fcfdfd" offset="0.316" ></stop><stop id="SvgjsStop3162" stop-opacity="1" stop-color="#f4f7f8" offset="0.505" ></stop><stop id="SvgjsStop3163" stop-opacity="1" stop-color="#e5ecef" offset="0.661" ></stop><stop id="SvgjsStop3164" stop-opacity="1" stop-color="#d8e2e7" offset="0.76" ></stop></radialGradient><radialGradient id="SvgjsRadialGradient3166" cx="129.05" cy="85.956" r="15.117" gradientTransform="matrix(-0.9945 0.1042 0.1042 0.9945 192.8274 -12.4637)" gradientUnits="userSpaceOnUse" class="svga-on-canvas-eyesfront-gradient-left-0"><stop id="SvgjsStop3167" stop-opacity="1" stop-color="#ffffff" offset="0" ></stop><stop id="SvgjsStop3168" stop-opacity="1" stop-color="#fcfdfd" offset="0.316" ></stop><stop id="SvgjsStop3169" stop-opacity="1" stop-color="#f4f7f8" offset="0.505" ></stop><stop id="SvgjsStop3170" stop-opacity="1" stop-color="#e5ecef" offset="0.661" ></stop><stop id="SvgjsStop3171" stop-opacity="1" stop-color="#d8e2e7" offset="0.76" ></stop></radialGradient><radialGradient id="SvgjsRadialGradient3175" cx="121.786" cy="84.496" fx="133.039" fy="84.527" r="16.003" gradientTransform="matrix(0.9998 0.0208 0.0166 -0.7998 -44.9524 149.5433)" gradientUnits="userSpaceOnUse" class="svga-on-canvas-eyesfront-gradient-left-3"><stop id="SvgjsStop3176" stop-opacity="1" stop-color="#e1ac8f" offset="0" ></stop><stop id="SvgjsStop3177" stop-opacity="0.3" stop-color="#e1ac8f" offset="0.7" ></stop><stop id="SvgjsStop3178" stop-opacity="0" stop-color="#f0c7b1" offset="1" ></stop></radialGradient><radialGradient id="SvgjsRadialGradient3180" cx="69.124" cy="107.529" r="29.525" gradientTransform="matrix(1.0336 0 0 1.0336 -1.6792 1.7282)" gradientUnits="userSpaceOnUse" class="svga-on-canvas-eyesfront-gradient-left-4"><stop id="SvgjsStop3181" stop-opacity="0" stop-color="#000000" offset="0.95" ></stop><stop id="SvgjsStop3182" stop-opacity="0.3" stop-color="#000000" offset="1" ></stop></radialGradient><radialGradient id="SvgjsRadialGradient3186" cx="129.049" cy="85.956" r="15.117" gradientTransform="matrix(0.9945 0.1042 -0.1042 0.9945 7.1735 -12.4637)" gradientUnits="userSpaceOnUse" class="svga-on-canvas-eyesfront-gradient-right-0"><stop id="SvgjsStop3187" stop-opacity="1" stop-color="#ffffff" offset="0" ></stop><stop id="SvgjsStop3188" stop-opacity="1" stop-color="#fcfdfd" offset="0.316" ></stop><stop id="SvgjsStop3189" stop-opacity="1" stop-color="#f4f7f8" offset="0.505" ></stop><stop id="SvgjsStop3190" stop-opacity="1" stop-color="#e5ecef" offset="0.661" ></stop><stop id="SvgjsStop3191" stop-opacity="1" stop-color="#d8e2e7" offset="0.76" ></stop></radialGradient><radialGradient id="SvgjsRadialGradient3195" cx="121.786" cy="84.496" fx="133.039" fy="84.527" r="16.003" gradientTransform="matrix(-0.9998 0.0208 -0.0166 -0.7998 244.9525 149.5433)" gradientUnits="userSpaceOnUse" class="svga-on-canvas-eyesfront-gradient-right-3"><stop id="SvgjsStop3196" stop-opacity="1" stop-color="#e1ac8f" offset="0" ></stop><stop id="SvgjsStop3197" stop-opacity="0.3" stop-color="#e1ac8f" offset="0.7" ></stop><stop id="SvgjsStop3198" stop-opacity="0" stop-color="#f0c7b1" offset="1" ></stop></radialGradient><radialGradient id="SvgjsRadialGradient3200" cx="69.124" cy="107.529" r="29.525" gradientTransform="matrix(-1.0336 0 0 1.0336 201.6792 1.7282)" gradientUnits="userSpaceOnUse" class="svga-on-canvas-eyesfront-gradient-right-4"><stop id="SvgjsStop3201" stop-opacity="0" stop-color="#000000" offset="0.95" ></stop><stop id="SvgjsStop3202" stop-opacity="0.3" stop-color="#000000" offset="1" ></stop></radialGradient><radialGradient id="SvgjsRadialGradient3277" cx="-558.588" cy="-490.918" r="84.646" gradientTransform="matrix(0.096 -0.0248 0.0245 0.0961 140.5478 120.3577)" gradientUnits="userSpaceOnUse" class="svga-on-canvas-eyesiris-gradient-left-1"><stop id="SvgjsStop3278" stop-opacity="0.8" stop-color="#ffffff" offset="0" ></stop><stop id="SvgjsStop3279" stop-opacity="0" stop-color="#ffffff" offset="1" ></stop></radialGradient><radialGradient id="SvgjsRadialGradient3281" cx="-565.337" cy="-492.691" r="84.644" gradientTransform="matrix(0.0991 8.856325e-004 -0.0011 0.0991 130.3774 136.3533)" gradientUnits="userSpaceOnUse" class="svga-on-canvas-eyesiris-gradient-left-2"><stop id="SvgjsStop3282" stop-opacity="0.8" stop-color="#ffffff" offset="0" ></stop><stop id="SvgjsStop3283" stop-opacity="0" stop-color="#ffffff" offset="1" ></stop></radialGradient><linearGradient id="SvgjsLinearGradient3287" x1="122.283" y1="93.047" x2="123.61" y2="91.466" gradientTransform="matrix(1 0 0 1 -52 0)" gradientUnits="userSpaceOnUse" class="svga-on-canvas-eyesiris-gradient-left-5"><stop id="SvgjsStop3288" stop-opacity="1" stop-color="#ffffff" offset="0" ></stop><stop id="SvgjsStop3289" stop-opacity="0" stop-color="#ffffff" offset="1" ></stop></linearGradient><linearGradient id="SvgjsLinearGradient3291" x1="127" y1="85" x2="125" y2="87" gradientTransform="matrix(1 0 0 1 -50 0)" gradientUnits="userSpaceOnUse" class="svga-on-canvas-eyesiris-gradient-left-6"><stop id="SvgjsStop3292" stop-opacity="1" stop-color="#ffffff" offset="0" ></stop><stop id="SvgjsStop3293" stop-opacity="0" stop-color="#ffffff" offset="1" ></stop></linearGradient><linearGradient id="SvgjsLinearGradient3295" x1="130" y1="81" x2="126" y2="85" gradientTransform="matrix(1 0 0 1 -50 0)" gradientUnits="userSpaceOnUse" class="svga-on-canvas-eyesiris-gradient-left-7"><stop id="SvgjsStop3296" stop-opacity="1" stop-color="#ffffff" offset="0" ></stop><stop id="SvgjsStop3297" stop-opacity="0" stop-color="#ffffff" offset="1" ></stop></linearGradient><radialGradient id="SvgjsRadialGradient3300" cx="-578.76" cy="-490.73" r="84.646" gradientTransform="matrix(0.096 -0.0248 0.0245 0.0961 192.4794 119.8404)" gradientUnits="userSpaceOnUse" class="svga-on-canvas-eyesiris-gradient-right-1"><stop id="SvgjsStop3301" stop-opacity="0.8" stop-color="#ffffff" offset="0" ></stop><stop id="SvgjsStop3302" stop-opacity="0" stop-color="#ffffff" offset="1" ></stop></radialGradient><radialGradient id="SvgjsRadialGradient3304" cx="-584.778" cy="-487.329" r="84.644" gradientTransform="matrix(0.0991 8.856325e-004 -0.0011 0.0991 182.3104 135.839)" gradientUnits="userSpaceOnUse" class="svga-on-canvas-eyesiris-gradient-right-2"><stop id="SvgjsStop3305" stop-opacity="0.8" stop-color="#ffffff" offset="0" ></stop><stop id="SvgjsStop3306" stop-opacity="0" stop-color="#ffffff" offset="1" ></stop></radialGradient><linearGradient id="SvgjsLinearGradient3310" x1="120.284" y1="93.047" x2="121.611" y2="91.467" gradientUnits="userSpaceOnUse" class="svga-on-canvas-eyesiris-gradient-right-5"><stop id="SvgjsStop3311" stop-opacity="1" stop-color="#ffffff" offset="0" ></stop><stop id="SvgjsStop3312" stop-opacity="0" stop-color="#ffffff" offset="1" ></stop></linearGradient><linearGradient id="SvgjsLinearGradient3314" x1="127" y1="85" x2="125" y2="87" gradientUnits="userSpaceOnUse" class="svga-on-canvas-eyesiris-gradient-right-6"><stop id="SvgjsStop3315" stop-opacity="1" stop-color="#ffffff" offset="0" ></stop><stop id="SvgjsStop3316" stop-opacity="0" stop-color="#ffffff" offset="1" ></stop></linearGradient><linearGradient id="SvgjsLinearGradient3318" x1="130" y1="81" x2="126" y2="85" gradientUnits="userSpaceOnUse" class="svga-on-canvas-eyesiris-gradient-right-7"><stop id="SvgjsStop3319" stop-opacity="1" stop-color="#ffffff" offset="0" ></stop><stop id="SvgjsStop3320" stop-opacity="0" stop-color="#ffffff" offset="1" ></stop></linearGradient><linearGradient id="SvgjsLinearGradient3353" x1="128" y1="106" x2="128" y2="69" gradientUnits="userSpaceOnUse" class="svga-on-canvas-glasses-gradient-single-1"><stop id="SvgjsStop3354" stop-opacity="0.95" stop-color="#fafaf5" offset="0" ></stop><stop id="SvgjsStop3355" stop-opacity="1" stop-color="#fafaf5" offset="1" ></stop></linearGradient><linearGradient id="SvgjsLinearGradient3357" x1="72" y1="106" x2="72" y2="69" gradientUnits="userSpaceOnUse" class="svga-on-canvas-glasses-gradient-single-2"><stop id="SvgjsStop3358" stop-opacity="0.95" stop-color="#fafaf5" offset="0" ></stop><stop id="SvgjsStop3359" stop-opacity="1" stop-color="#fafaf5" offset="1" ></stop></linearGradient></defs></svg>